Coordinates
version=1
nRows=4
nColumns=114
inDegrees=yes

Units are S.I. units (second, meters, Newtons, ...)
If the header above contains a line with 'inDegrees', this indicates whether rotational values are in degrees (yes) or radians (no).

endheader 
time	pelvis_tilt	pelvis_list	pelvis_rotation	pelvis_tx	pelvis_ty	pelvis_tz	hip_flexion_l	hip_adduction_l	hip_rotation_l	hip_flexion_r	hip_adduction_r	hip_rotation_r	knee_angle_l	knee_angle_r	ankle_angle_l	ankle_angle_r	subtalar_angle_l	subtalar_angle_r	mtp_angle_l	mtp_angle_r	lumbar_extension	lumbar_bending	lumbar_rotation	arm_flex_l	arm_add_l	arm_rot_l	arm_flex_r	arm_add_r	arm_rot_r	elbow_flex_l	elbow_flex_r	pro_sup_l	pro_sup_r	addbrev_l/activation	addlong_l/activation	addmagDist_l/activation	addmagIsch_l/activation	addmagMid_l/activation	addmagProx_l/activation	bflh_l/activation	bfsh_l/activation	edl_l/activation	ehl_l/activation	fdl_l/activation	fhl_l/activation	gaslat_l/activation	gasmed_l/activation	glmax1_l/activation	glmax2_l/activation	glmax3_l/activation	glmed1_l/activation	glmed2_l/activation	glmed3_l/activation	glmin1_l/activation	glmin2_l/activation	glmin3_l/activation	grac_l/activation	iliacus_l/activation	perbrev_l/activation	perlong_l/activation	piri_l/activation	psoas_l/activation	recfem_l/activation	sart_l/activation	semimem_l/activation	semiten_l/activation	soleus_l/activation	tfl_l/activation	tibant_l/activation	tibpost_l/activation	vasint_l/activation	vaslat_l/activation	vasmed_l/activation	addbrev_r/activation	addlong_r/activation	addmagDist_r/activation	addmagIsch_r/activation	addmagMid_r/activation	addmagProx_r/activation	bflh_r/activation	bfsh_r/activation	edl_r/activation	ehl_r/activation	fdl_r/activation	fhl_r/activation	gaslat_r/activation	gasmed_r/activation	glmax1_r/activation	glmax2_r/activation	glmax3_r/activation	glmed1_r/activation	glmed2_r/activation	glmed3_r/activation	glmin1_r/activation	glmin2_r/activation	glmin3_r/activation	grac_r/activation	iliacus_r/activation	perbrev_r/activation	perlong_r/activation	piri_r/activation	psoas_r/activation	recfem_r/activation	sart_r/activation	semimem_r/activation	semiten_r/activation	soleus_r/activation	tfl_r/activation	tibant_r/activation	tibpost_r/activation	vasint_r/activation	vaslat_r/activation	vasmed_r/activation	
          1.00000000	        -13.21142506	         -9.11537249	        -37.63470015	          1.41227901	          0.93355573	          0.33251849	          9.10581993	         -8.94896556	         -3.41140647	         33.37986744	         -2.09014299	         -1.08815038	         20.88303048	        107.61397341	         17.71421576	         -1.55455821	         -7.11812546	        -19.93972562	          4.99296389	        -37.49921483	        -11.82738744	          6.06856616	          0.11265328	         12.15907807	        -16.93488987	         23.96783444	          4.01991684	        -16.00639464	         21.06269818	         23.51096651	         29.94481386	         99.23858068	         79.59961245	          0.01105765	          0.01059542	          0.01258092	          0.01979882	          0.01135460	          0.01147900	          0.02471176	          0.02804503	          0.02320678	          0.03804569	          0.04855412	          0.07030064	          0.03113193	          0.01949852	          0.16328206	          0.16795982	          0.02468837	          0.39623146	          0.29749665	          0.25647242	          0.12556641	          0.14184076	          0.13467531	          0.01290140	          0.01364651	          0.01703757	          0.01352573	          0.12669129	          0.01225842	          0.22094983	          0.02882983	          0.02550338	          0.02600883	          0.30653562	          0.19496318	          0.07419156	          0.38639249	          0.07795400	          0.17698667	          0.08646204	          0.05191174	          0.05231532	          0.02869602	          0.02307747	          0.03969640	          0.07636756	          0.29610791	          0.17735929	          0.04783752	          0.04383328	          0.04726283	          0.03982214	          0.06087903	          0.07460388	          0.01783376	          0.02413621	          0.02981359	          0.01060531	          0.01103524	          0.01143048	          0.01211287	          0.01214717	          0.01261069	          0.18236321	          0.01296586	          0.03598522	          0.03518732	          0.07830696	          0.02057051	          0.01065133	          0.04102374	          0.11454601	          0.16461966	          0.01469252	          0.01147755	          0.05170111	          0.03580644	          0.01106248	          0.01038631	          0.01074217	
          1.01000000	        -13.31396213	         -9.23800680	        -37.86725098	          1.40863974	          0.93367456	          0.33046380	          9.42063277	         -9.13361092	         -3.39746530	         34.18396841	         -2.49356756	         -1.26607735	         21.09556554	        109.07718749	         17.99601271	         -0.99389042	         -7.33249474	        -19.49913046	          3.32132637	        -33.08078142	        -12.13123384	          6.30654232	          0.36951990	         12.49710893	        -16.61206054	         24.57966645	          4.77838795	        -16.41756531	         20.85383610	         23.50685334	         29.86134187	         97.99495027	         79.21185240	          0.01335873	          0.01158784	          0.01942805	          0.02314218	          0.01560180	          0.01683318	          0.02194904	          0.03106789	          0.02277387	          0.03924527	          0.04174718	          0.05958324	          0.06625813	          0.04579771	          0.13677895	          0.14038769	          0.02508068	          0.33059041	          0.24845737	          0.21431145	          0.10661832	          0.12017068	          0.11379911	          0.01908937	          0.01773867	          0.01700466	          0.01287524	          0.10611383	          0.01773013	          0.18553931	          0.03795063	          0.02176334	          0.02447254	          0.25595887	          0.16354717	          0.09548461	          0.32319693	          0.07589035	          0.15005724	          0.07878419	          0.04389301	          0.04407122	          0.02438295	          0.01971453	          0.03358078	          0.06458176	          0.24699304	          0.15174698	          0.05613242	          0.04725060	          0.04549909	          0.03895325	          0.06157745	          0.07107297	          0.02730268	          0.02235444	          0.02515793	          0.01489342	          0.02071465	          0.02634057	          0.02390154	          0.02832834	          0.03549909	          0.15270725	          0.04788263	          0.04727026	          0.05540249	          0.17579827	          0.17561215	          0.08695002	          0.18938371	          0.09616834	          0.13754835	          0.01586817	          0.09561318	          0.06115808	          0.03384318	          0.01270949	          0.01093510	          0.01184820	
          1.02000000	        -13.31292378	         -9.39481834	        -37.94753793	          1.40618883	          0.93495147	          0.32965673	          9.38222239	         -9.29925962	         -3.37339791	         34.36608293	         -2.69417676	         -1.49028553	         20.96443106	        110.06520583	         18.00591022	         -0.93613543	         -7.41652947	        -19.51478208	          1.83088773	        -29.16248467	        -12.29341418	          6.42776515	          0.40858308	         12.04376441	        -16.54184665	         24.60531257	          4.39405263	        -16.46384680	         20.90700099	         23.48141432	         29.76770513	         97.97545978	         79.20112857	          0.02428609	          0.02218884	          0.02086219	          0.02196298	          0.02144815	          0.02879586	          0.01910401	          0.04804452	          0.03553001	          0.04972308	          0.03702361	          0.05095250	          0.05822218	          0.04765283	          0.11433874	          0.11719101	          0.02156890	          0.27603378	          0.20752080	          0.17893269	          0.09182474	          0.10201521	          0.09607556	          0.03206585	          0.06443221	          0.02138623	          0.01702039	          0.08886927	          0.06109314	          0.15564941	          0.06354904	          0.01888895	          0.02401540	          0.21348362	          0.13806080	          0.09640472	          0.27045556	          0.06374317	          0.12518116	          0.06601080	          0.03705804	          0.03711056	          0.02069181	          0.01684213	          0.02837096	          0.05457220	          0.20605276	          0.13593822	          0.06719093	          0.05314038	          0.04447669	          0.03789081	          0.06028754	          0.06777543	          0.03124531	          0.02053790	          0.02121785	          0.02733955	          0.04684253	          0.07419197	          0.03710966	          0.06137845	          0.08648040	          0.12800746	          0.21915016	          0.05512701	          0.06168309	          0.17880309	          0.16400913	          0.16978265	          0.24399120	          0.08075142	          0.11496610	          0.01419571	          0.16500199	          0.07056511	          0.03141621	          0.01289206	          0.01093222	          0.01191024	
          1.03000000	        -13.35753608	         -9.49522227	        -37.99331276	          1.40410074	          0.93667040	          0.32923041	          9.39351258	         -9.44693249	         -3.31855729	         34.44676642	         -2.78947260	         -1.69518460	         20.81428426	        110.82389172	         17.94938896	         -0.83105853	         -7.51974644	        -19.39567131	          0.66365914	        -25.69467772	        -12.28601841	          6.50924101	          0.42341384	         11.51521111	        -16.51485601	         24.43244454	          3.62094821	        -16.43598786	         20.99921355	         23.49523032	         29.65504351	         98.30010017	         79.30660707	          0.04251225	          0.05156852	          0.02295130	          0.02242600	          0.02751172	          0.03548392	          0.01691348	          0.05105039	          0.04456316	          0.05208685	          0.03120700	          0.04273838	          0.04932431	          0.04035046	          0.09564309	          0.09785902	          0.01865507	          0.23090809	          0.17356579	          0.14946995	          0.08259666	          0.08743694	          0.08150198	          0.03857993	          0.11754954	          0.02876906	          0.02104519	          0.07438525	          0.07736428	          0.13082653	          0.06233449	          0.01677056	          0.02417853	          0.17820021	          0.11895281	          0.09698729	          0.23623523	          0.05382467	          0.10457801	          0.05546096	          0.03147137	          0.03141685	          0.01768541	          0.01455827	          0.02409555	          0.04641486	          0.17204697	          0.12860103	          0.07126437	          0.05568916	          0.04448380	          0.03762007	          0.05922613	          0.06575418	          0.03044898	          0.01879536	          0.01797484	          0.02729040	          0.04517445	          0.07002142	          0.03978094	          0.06428271	          0.08212881	          0.10765309	          0.20722600	          0.05482965	          0.05888416	          0.16508115	          0.24513699	          0.15113180	          0.28811059	          0.06798831	          0.09619156	          0.01315877	          0.15471907	          0.08192016	          0.03128312	          0.01295069	          0.01094277	          0.01192907	
